:SAMPLES-PER-SECOND 30
:FULLY-SPECIFIED
:DEGREES
398
root  -33.478 34.9994 3.42286 -172.129 71.3556 178.788
RightUpLeg  -6.09112 -12.5462 -0.74775
RightLeg  4.912 2.98437 0.0650543
RightFoot  3.69718 0.00233362 0.311251
RightToes  -27.898 -0.129978 -0.23548
Spine  -1.53378 2.11363 -3.89314
Spine1  -2.93959 3.87701 -6.85903
HEad  -74.5738 -11.0452 0.588002
LeftShoulder1  -1.94126e-019 -3.10601e-018 -2.51263e-017
LeftArm  -8.89738 23.5035 -72.1093
LeftForeArm  27.2064 -39.1051 -7.35631
LeftHand  -0.288815 0.542695 6.91961
RightShoulder  -4.96962e-017 0 -2.36833e-017
RightArm  -11.2992 5.46451 42.3626
RightForeArm  155.834 47.9249 167.775
RightHand  -0.09114 -5.79809 13.0583
LeftUpLeg  -8.39467 -5.95922 -0.562787
LeftLeg  2.47276 12.9502 -0.271331
LeftFoot  8.02018 -0.127199 1.98272
LeftToes  -17.1481 1.89912e-006 4.45198e-008
399
root  -33.5231 34.9948 3.43235 -171.859 70.8086 178.888
RightUpLeg  -6.32265 -12.9871 -0.648591
RightLeg  5.0159 2.89794 0.0684614
RightFoot  3.67849 0.00223225 0.306535
RightToes  -27.919 -0.129766 -0.235131
Spine  -1.47912 2.29857 -4.00462
Spine1  -2.86388 4.26671 -7.09558
HEad  -74.4755 -11.838 0.541356
LeftShoulder1  -1.94126e-019 -3.10601e-018 -2.51263e-017
LeftArm  -9.69054 23.4988 -72.295
LeftForeArm  26.7091 -36.2035 -6.56509
LeftHand  -0.292849 0.536299 7.00845
RightShoulder  -4.96962e-017 0 -2.36833e-017
RightArm  -14.9357 7.69008 41.6063
RightForeArm  155.169 48.4791 167.512
RightHand  -0.0180722 -5.20024 14.4443
LeftUpLeg  -8.88362 -6.32836 -0.477643
LeftLeg  2.83306 12.7935 -0.188349
LeftFoot  7.99332 -0.126061 1.95454
LeftToes  -17.1396 1.89912e-006 4.45198e-008
400
root  -33.5695 34.9899 3.43487 -171.701 70.1673 178.931
RightUpLeg  -6.50164 -13.3763 -0.582551
RightLeg  5.16293 2.65881 0.0697252
RightFoot  3.60355 0.00283058 0.29194
RightToes  -27.9109 -0.129609 -0.234852
Spine  -1.44096 2.47631 -4.07977
Spine1  -2.83453 4.65651 -7.26975
HEad  -74.0156 -12.4574 0.501548
LeftShoulder1  -1.94126e-019 -3.10601e-018 -2.51263e-017
LeftArm  -10.4791 23.5989 -72.5322
LeftForeArm  26.6831 -33.4991 -5.85661
LeftHand  -0.284361 0.518442 6.78056
RightShoulder  -4.96962e-017 0 -2.36833e-017
RightArm  -19.2304 9.89921 40.5011
RightForeArm  154.539 49.5077 167.048
RightHand  0.0562162 -4.70909 16.22
LeftUpLeg  -9.30589 -6.7985 -0.412168
LeftLeg  3.16226 12.6199 -0.113951
LeftFoot  7.98664 -0.125158 1.93002
LeftToes  -17.2067 1.89912e-006 4.45198e-008
401
root  -33.618 34.9866 3.42875 -171.643 69.5406 178.911
RightUpLeg  -6.64556 -13.7151 -0.56424
RightLeg  5.32041 2.38597 0.0692413
RightFoot  3.56707 0.00333987 0.278744
RightToes  -28.0139 -0.129511 -0.234645
Spine  -1.33196 2.68459 -4.1352
Spine1  -2.67825 5.126 -7.41085
HEad  -73.7697 -13.0443 0.409839
LeftShoulder1  -1.94126e-019 -3.10601e-018 -2.51263e-017
LeftArm  -11.0393 23.5741 -72.7867
LeftForeArm  26.7817 -31.076 -5.25423
LeftHand  -0.293959 0.342706 6.78436
RightShoulder  -4.96962e-017 0 -2.36833e-017
RightArm  -24.9266 12.2779 38.9517
RightForeArm  155.369 51.4016 166.282
RightHand  0.420742 -2.62695 18.5573
LeftUpLeg  -9.67136 -7.22634 -0.388539
LeftLeg  3.46337 12.4158 -0.0474444
LeftFoot  8.00221 -0.124372 1.90735
LeftToes  -17.2947 1.89912e-006 4.45198e-008
402
root  -33.6795 34.984 3.42045 -171.66 68.8963 178.874
RightUpLeg  -6.75497 -14.0912 -0.570459
RightLeg  5.49556 2.1343 0.0685827
RightFoot  3.49678 0.00377388 0.266755
RightToes  -27.9361 -0.129474 -0.234514
Spine  -1.1837 2.91494 -4.17135
Spine1  -2.4559 5.65385 -7.5225
HEad  -73.4233 -13.781 0.256021
LeftShoulder1  -1.94126e-019 -3.10601e-018 -2.51263e-017
LeftArm  -11.4289 23.5748 -73.0143
LeftForeArm  26.5486 -29.1801 -4.82256
LeftHand  -0.292684 0.425302 6.85887
RightShoulder  -4.96962e-017 0 -2.36833e-017
RightArm  -31.6468 14.677 36.9901
RightForeArm  152.817 55.1763 164.219
RightHand  0.737058 -1.20837 20.645
LeftUpLeg  -9.98259 -7.6072 -0.39221
LeftLeg  3.73229 12.1623 0.0101206
LeftFoot  8.05244 -0.123654 1.88577
LeftToes  -17.3937 1.89912e-006 4.45198e-008
403
root  -33.7592 34.9883 3.41551 -171.731 68.2361 178.853
RightUpLeg  -6.81207 -14.4151 -0.58783
RightLeg  5.6518 1.81145 0.0633153
RightFoot  3.50089 0.00430668 0.253495
RightToes  -27.8723 -0.129501 -0.234465
Spine  -1.01228 3.14483 -4.19728
Spine1  -2.18999 6.18432 -7.61889
HEad  -72.6356 -14.5971 -0.0296416
LeftShoulder1  -1.94126e-019 -3.10601e-018 -2.51263e-017
LeftArm  -11.4005 23.4843 -73.0741
LeftForeArm  26.1977 -27.5057 -4.46332
LeftHand  -0.302356 0.27426 6.8923
RightShoulder  -4.96962e-017 0 -2.36833e-017
RightArm  -38.4219 16.9328 35.185
RightForeArm  146.892 61.2134 159.793
RightHand  0.802793 -0.964506 21.1567
LeftUpLeg  -10.2401 -7.96106 -0.401934
LeftLeg  3.96536 11.8668 0.0577615
LeftFoot  8.13293 -0.122907 1.86382
LeftToes  -17.3348 1.89912e-006 4.45198e-008
404
root  -33.8601 34.9974 3.41455 -171.773 67.4704 178.872
RightUpLeg  -6.83018 -14.9393 -0.588931
RightLeg  5.69997 1.5961 0.0572558
RightFoot  3.5803 0.00431936 0.247813
RightToes  -27.7914 -0.129595 -0.234499
Spine  -0.842642 3.37025 -4.19331
Spine1  -1.93216 6.71177 -7.66702
HEad  -71.4529 -15.74 -0.520204
LeftShoulder1  -1.94126e-019 -3.10601e-018 -2.51263e-017
LeftArm  -11.2286 23.1211 -73.1345
LeftForeArm  26.17 -25.8057 -4.09369
LeftHand  -0.298955 0.205318 6.73062
RightShoulder  -4.96962e-017 0 -2.36833e-017
RightArm  -44.5609 18.994 33.9099
RightForeArm  136.715 69.0024 150.382
RightHand  0.737694 -0.917042 19.274
LeftUpLeg  -10.5562 -8.35277 -0.39866
LeftLeg  4.24261 11.4997 0.111218
LeftFoot  8.24884 -0.121866 1.83736
LeftToes  -17.2076 1.89912e-006 4.45198e-008
405
root  -33.9662 35.0045 3.41602 -171.735 66.7954 178.941
RightUpLeg  -6.88106 -15.4457 -0.566894
RightLeg  5.69889 1.46313 0.0525439
RightFoot  3.69386 0.004098 0.245629
RightToes  -27.7595 -0.129757 -0.234622
Spine  -0.712064 3.57705 -4.17616
Spine1  -1.7285 7.17821 -7.67588
HEad  -69.7436 -17.0364 -1.16025
LeftShoulder1  -1.94126e-019 -3.10601e-018 -2.51263e-017
LeftArm  -11.1248 22.6978 -73.1941
LeftForeArm  26.4093 -24.0812 -3.74138
LeftHand  -0.30436 0.146221 6.78099
RightShoulder  -4.96962e-017 0 -2.36833e-017
RightArm  -49.8116 21.3339 33.3464
RightForeArm  110.882 77.0385 124.645
RightHand  0.649471 -0.760133 16.4202
LeftUpLeg  -10.9143 -8.68713 -0.375809
LeftLeg  4.53262 11.1697 0.164197
LeftFoot  8.37216 -0.121058 1.81463
LeftToes  -17.2755 1.89912e-006 4.45198e-008
